# Blender v2.78 (sub 0) OBJ File: 'grid_level_1.blend'
# www.blender.org
mtllib grid_level_1.mtl
o Dark_tile.009_Cube.017
v -1.469970 -0.100455 4.982230
v -1.469970 0.100455 4.982230
v -1.469970 -0.100455 2.982230
v -1.469970 0.100455 2.982230
v 0.530030 -0.100455 4.982230
v 0.530030 0.100455 4.982230
v 0.530030 -0.100455 2.982230
v 0.530030 0.100455 2.982230
vt 0.0059 -0.0973
vt 0.0059 0.0024
vt -0.9865 0.0024
vt -0.9865 -0.0973
vt -1.9790 0.0024
vt -1.9790 -0.0973
vt 1.9908 -0.0973
vt 1.9908 0.0024
vt 0.9983 0.0024
vt 0.9983 -0.0973
vt 0.0059 -1.0897
vt 0.9983 -1.0897
vt 0.9983 0.9949
vt 0.0059 0.9949
vn -1.0000 0.0000 0.0000
vn 0.0000 0.0000 -1.0000
vn 1.0000 0.0000 0.0000
vn 0.0000 0.0000 1.0000
vn 0.0000 -1.0000 0.0000
vn 0.0000 1.0000 0.0000
usemtl Material.001
s off
f 1/1/1 2/2/1 4/3/1 3/4/1
f 3/4/2 4/3/2 8/5/2 7/6/2
f 7/7/3 8/8/3 6/9/3 5/10/3
f 5/10/4 6/9/4 2/2/4 1/1/4
f 3/11/5 7/12/5 5/10/5 1/1/5
f 8/13/6 4/14/6 2/2/6 6/9/6
o Dark_tile.008_Cube.016
v -1.463099 -0.100455 -4.486471
v -1.463099 0.100455 -4.486471
v -1.463099 -0.100455 -6.486471
v -1.463099 0.100455 -6.486471
v 0.536901 -0.100455 -4.486471
v 0.536901 0.100455 -4.486471
v 0.536901 -0.100455 -6.486471
v 0.536901 0.100455 -6.486471
vt 0.0059 -0.0973
vt 0.0059 0.0024
vt -0.9865 0.0024
vt -0.9865 -0.0973
vt -1.9790 0.0024
vt -1.9790 -0.0973
vt 1.9908 -0.0973
vt 1.9908 0.0024
vt 0.9983 0.0024
vt 0.9983 -0.0973
vt 0.0059 -1.0897
vt 0.9983 -1.0897
vt 0.9983 0.9949
vt 0.0059 0.9949
vn -1.0000 0.0000 0.0000
vn 0.0000 0.0000 -1.0000
vn 1.0000 0.0000 0.0000
vn 0.0000 0.0000 1.0000
vn 0.0000 -1.0000 0.0000
vn 0.0000 1.0000 0.0000
usemtl Material.001
s off
f 9/15/7 10/16/7 12/17/7 11/18/7
f 11/18/8 12/17/8 16/19/8 15/20/8
f 15/21/9 16/22/9 14/23/9 13/24/9
f 13/24/10 14/23/10 10/16/10 9/15/10
f 11/25/11 15/26/11 13/24/11 9/15/11
f 16/27/12 12/28/12 10/16/12 14/23/12
o Dark_tile.007_Cube.015
v 0.669105 -0.100455 -4.486471
v 0.669105 0.100455 -4.486471
v 0.669105 -0.100455 -6.486471
v 0.669105 0.100455 -6.486471
v 2.669105 -0.100455 -4.486471
v 2.669105 0.100455 -4.486471
v 2.669105 -0.100455 -6.486471
v 2.669105 0.100455 -6.486471
vt 0.0059 -0.0973
vt 0.0059 0.0024
vt -0.9865 0.0024
vt -0.9865 -0.0973
vt -1.9790 0.0024
vt -1.9790 -0.0973
vt 1.9908 -0.0973
vt 1.9908 0.0024
vt 0.9983 0.0024
vt 0.9983 -0.0973
vt 0.0059 -1.0897
vt 0.9983 -1.0897
vt 0.9983 0.9949
vt 0.0059 0.9949
vn -1.0000 0.0000 0.0000
vn 0.0000 0.0000 -1.0000
vn 1.0000 0.0000 0.0000
vn 0.0000 0.0000 1.0000
vn 0.0000 -1.0000 0.0000
vn 0.0000 1.0000 0.0000
usemtl Material.001
s off
f 17/29/13 18/30/13 20/31/13 19/32/13
f 19/32/14 20/31/14 24/33/14 23/34/14
f 23/35/15 24/36/15 22/37/15 21/38/15
f 21/38/16 22/37/16 18/30/16 17/29/16
f 19/39/17 23/40/17 21/38/17 17/29/17
f 24/41/18 20/42/18 18/30/18 22/37/18
o Light_tile.004_Cube.014
v 2.792152 -0.100455 -2.341294
v 2.792152 0.100455 -2.341294
v 2.792152 -0.100455 -4.341293
v 2.792152 0.100455 -4.341293
v 4.792152 -0.100455 -2.341294
v 4.792152 0.100455 -2.341294
v 4.792152 -0.100455 -4.341293
v 4.792152 0.100455 -4.341293
vt 0.0039 -0.0987
vt 0.0039 0.0017
vt -0.9960 0.0017
vt -0.9960 -0.0987
vt -1.9959 0.0017
vt -1.9959 -0.0987
vt 2.0037 -0.0987
vt 2.0037 0.0017
vt 1.0038 0.0017
vt 1.0038 -0.0987
vt 0.0039 -1.0986
vt 1.0038 -1.0986
vt 1.0038 1.0016
vt 0.0039 1.0016
vn -1.0000 0.0000 0.0000
vn 0.0000 0.0000 -1.0000
vn 1.0000 0.0000 0.0000
vn 0.0000 0.0000 1.0000
vn 0.0000 -1.0000 0.0000
vn 0.0000 1.0000 0.0000
usemtl Material.002
s off
f 25/43/19 26/44/19 28/45/19 27/46/19
f 27/46/20 28/45/20 32/47/20 31/48/20
f 31/49/21 32/50/21 30/51/21 29/52/21
f 29/52/22 30/51/22 26/44/22 25/43/22
f 27/53/23 31/54/23 29/52/23 25/43/23
f 32/55/24 28/56/24 26/44/24 30/51/24
o Dark_tile.006_Cube.013
v 0.669105 -0.100455 -2.349215
v 0.669105 0.100455 -2.349215
v 0.669105 -0.100455 -4.349215
v 0.669105 0.100455 -4.349215
v 2.669105 -0.100455 -2.349215
v 2.669105 0.100455 -2.349215
v 2.669105 -0.100455 -4.349215
v 2.669105 0.100455 -4.349215
vt 0.0059 -0.0973
vt 0.0059 0.0024
vt -0.9865 0.0024
vt -0.9865 -0.0973
vt -1.9790 0.0024
vt -1.9790 -0.0973
vt 1.9908 -0.0973
vt 1.9908 0.0024
vt 0.9983 0.0024
vt 0.9983 -0.0973
vt 0.0059 -1.0897
vt 0.9983 -1.0897
vt 0.9983 0.9949
vt 0.0059 0.9949
vn -1.0000 0.0000 0.0000
vn 0.0000 0.0000 -1.0000
vn 1.0000 0.0000 0.0000
vn 0.0000 0.0000 1.0000
vn 0.0000 -1.0000 0.0000
vn 0.0000 1.0000 0.0000
usemtl Material.001
s off
f 33/57/25 34/58/25 36/59/25 35/60/25
f 35/60/26 36/59/26 40/61/26 39/62/26
f 39/63/27 40/64/27 38/65/27 37/66/27
f 37/66/28 38/65/28 34/58/28 33/57/28
f 35/67/29 39/68/29 37/66/29 33/57/29
f 40/69/30 36/70/30 34/58/30 38/65/30
o Light_tile.003_Cube.012
v -1.471966 -0.100455 -2.341294
v -1.471966 0.100455 -2.341294
v -1.471966 -0.100455 -4.341293
v -1.471966 0.100455 -4.341293
v 0.528034 -0.100455 -2.341294
v 0.528034 0.100455 -2.341294
v 0.528034 -0.100455 -4.341293
v 0.528034 0.100455 -4.341293
vt 0.0039 -0.0987
vt 0.0039 0.0017
vt -0.9960 0.0017
vt -0.9960 -0.0987
vt -1.9959 0.0017
vt -1.9959 -0.0987
vt 2.0037 -0.0987
vt 2.0037 0.0017
vt 1.0038 0.0017
vt 1.0038 -0.0987
vt 0.0039 -1.0986
vt 1.0038 -1.0986
vt 1.0038 1.0016
vt 0.0039 1.0016
vn -1.0000 0.0000 0.0000
vn 0.0000 0.0000 -1.0000
vn 1.0000 0.0000 0.0000
vn 0.0000 0.0000 1.0000
vn 0.0000 -1.0000 0.0000
vn 0.0000 1.0000 0.0000
usemtl Material.002
s off
f 41/71/31 42/72/31 44/73/31 43/74/31
f 43/74/32 44/73/32 48/75/32 47/76/32
f 47/77/33 48/78/33 46/79/33 45/80/33
f 45/80/34 46/79/34 42/72/34 41/71/34
f 43/81/35 47/82/35 45/80/35 41/71/35
f 48/83/36 44/84/36 42/72/36 46/79/36
o Light_tile.002_Cube.009
v -3.560957 -0.100455 -2.341294
v -3.560957 0.100455 -2.341294
v -3.560957 -0.100455 -4.341293
v -3.560957 0.100455 -4.341293
v -1.560957 -0.100455 -2.341294
v -1.560957 0.100455 -2.341294
v -1.560957 -0.100455 -4.341293
v -1.560957 0.100455 -4.341293
vt 0.0039 -0.0987
vt 0.0039 0.0017
vt -0.9960 0.0017
vt -0.9960 -0.0987
vt -1.9959 0.0017
vt -1.9959 -0.0987
vt 2.0037 -0.0987
vt 2.0037 0.0017
vt 1.0038 0.0017
vt 1.0038 -0.0987
vt 0.0039 -1.0986
vt 1.0038 -1.0986
vt 1.0038 1.0016
vt 0.0039 1.0016
vn -1.0000 0.0000 0.0000
vn 0.0000 0.0000 -1.0000
vn 1.0000 0.0000 0.0000
vn 0.0000 0.0000 1.0000
vn 0.0000 -1.0000 0.0000
vn 0.0000 1.0000 0.0000
usemtl Material.002
s off
f 49/85/37 50/86/37 52/87/37 51/88/37
f 51/88/38 52/87/38 56/89/38 55/90/38
f 55/91/39 56/92/39 54/93/39 53/94/39
f 53/94/40 54/93/40 50/86/40 49/85/40
f 51/95/41 55/96/41 53/94/41 49/85/41
f 56/97/42 52/98/42 50/86/42 54/93/42
o Light_tile.001_Cube.008
v -3.560957 -0.100455 -0.239249
v -3.560957 0.100455 -0.239249
v -3.560957 -0.100455 -2.239249
v -3.560957 0.100455 -2.239249
v -1.560957 -0.100455 -0.239249
v -1.560957 0.100455 -0.239249
v -1.560957 -0.100455 -2.239249
v -1.560957 0.100455 -2.239249
vt 0.0039 -0.0987
vt 0.0039 0.0017
vt -0.9960 0.0017
vt -0.9960 -0.0987
vt -1.9959 0.0017
vt -1.9959 -0.0987
vt 2.0037 -0.0987
vt 2.0037 0.0017
vt 1.0038 0.0017
vt 1.0038 -0.0987
vt 0.0039 -1.0986
vt 1.0038 -1.0986
vt 1.0038 1.0016
vt 0.0039 1.0016
vn -1.0000 0.0000 0.0000
vn 0.0000 0.0000 -1.0000
vn 1.0000 0.0000 0.0000
vn 0.0000 0.0000 1.0000
vn 0.0000 -1.0000 0.0000
vn 0.0000 1.0000 0.0000
usemtl Material.002
s off
f 57/99/43 58/100/43 60/101/43 59/102/43
f 59/102/44 60/101/44 64/103/44 63/104/44
f 63/105/45 64/106/45 62/107/45 61/108/45
f 61/108/46 62/107/46 58/100/46 57/99/46
f 59/109/47 63/110/47 61/108/47 57/99/47
f 64/111/48 60/112/48 58/100/48 62/107/48
o Dark_tile.005_Cube.007
v 2.794437 -0.100455 -0.243959
v 2.794437 0.100455 -0.243959
v 2.794437 -0.100455 -2.243959
v 2.794437 0.100455 -2.243959
v 4.794437 -0.100455 -0.243959
v 4.794437 0.100455 -0.243959
v 4.794437 -0.100455 -2.243959
v 4.794437 0.100455 -2.243959
vt 0.0059 -0.0973
vt 0.0059 0.0024
vt -0.9865 0.0024
vt -0.9865 -0.0973
vt -1.9790 0.0024
vt -1.9790 -0.0973
vt 1.9908 -0.0973
vt 1.9908 0.0024
vt 0.9983 0.0024
vt 0.9983 -0.0973
vt 0.0059 -1.0897
vt 0.9983 -1.0897
vt 0.9983 0.9949
vt 0.0059 0.9949
vn -1.0000 0.0000 0.0000
vn 0.0000 0.0000 -1.0000
vn 1.0000 0.0000 0.0000
vn 0.0000 0.0000 1.0000
vn 0.0000 -1.0000 0.0000
vn 0.0000 1.0000 0.0000
usemtl Material.001
s off
f 65/113/49 66/114/49 68/115/49 67/116/49
f 67/116/50 68/115/50 72/117/50 71/118/50
f 71/119/51 72/120/51 70/121/51 69/122/51
f 69/122/52 70/121/52 66/114/52 65/113/52
f 67/123/53 71/124/53 69/122/53 65/113/53
f 72/125/54 68/126/54 66/114/54 70/121/54
o Dark_tile.004_Cube.006
v 4.933512 -0.100455 -0.243959
v 4.933512 0.100455 -0.243959
v 4.933512 -0.100455 -2.243959
v 4.933512 0.100455 -2.243959
v 6.933512 -0.100455 -0.243959
v 6.933512 0.100455 -0.243959
v 6.933512 -0.100455 -2.243959
v 6.933512 0.100455 -2.243959
vt 0.0059 -0.0973
vt 0.0059 0.0024
vt -0.9865 0.0024
vt -0.9865 -0.0973
vt -1.9790 0.0024
vt -1.9790 -0.0973
vt 1.9908 -0.0973
vt 1.9908 0.0024
vt 0.9983 0.0024
vt 0.9983 -0.0973
vt 0.0059 -1.0897
vt 0.9983 -1.0897
vt 0.9983 0.9949
vt 0.0059 0.9949
vn -1.0000 0.0000 0.0000
vn 0.0000 0.0000 -1.0000
vn 1.0000 0.0000 0.0000
vn 0.0000 0.0000 1.0000
vn 0.0000 -1.0000 0.0000
vn 0.0000 1.0000 0.0000
usemtl Material.001
s off
f 73/127/55 74/128/55 76/129/55 75/130/55
f 75/130/56 76/129/56 80/131/56 79/132/56
f 79/133/57 80/134/57 78/135/57 77/136/57
f 77/136/58 78/135/58 74/128/58 73/127/58
f 75/137/59 79/138/59 77/136/59 73/127/59
f 80/139/60 76/140/60 74/128/60 78/135/60
o Dark_tile.003_Cube.005
v 0.669105 -0.100455 -0.243959
v 0.669105 0.100455 -0.243959
v 0.669105 -0.100455 -2.243959
v 0.669105 0.100455 -2.243959
v 2.669105 -0.100455 -0.243959
v 2.669105 0.100455 -0.243959
v 2.669105 -0.100455 -2.243959
v 2.669105 0.100455 -2.243959
vt 0.0059 -0.0973
vt 0.0059 0.0024
vt -0.9865 0.0024
vt -0.9865 -0.0973
vt -1.9790 0.0024
vt -1.9790 -0.0973
vt 1.9908 -0.0973
vt 1.9908 0.0024
vt 0.9983 0.0024
vt 0.9983 -0.0973
vt 0.0059 -1.0897
vt 0.9983 -1.0897
vt 0.9983 0.9949
vt 0.0059 0.9949
vn -1.0000 0.0000 0.0000
vn 0.0000 0.0000 -1.0000
vn 1.0000 0.0000 0.0000
vn 0.0000 0.0000 1.0000
vn 0.0000 -1.0000 0.0000
vn 0.0000 1.0000 0.0000
usemtl Material.001
s off
f 81/141/61 82/142/61 84/143/61 83/144/61
f 83/144/62 84/143/62 88/145/62 87/146/62
f 87/147/63 88/148/63 86/149/63 85/150/63
f 85/150/64 86/149/64 82/142/64 81/141/64
f 83/151/65 87/152/65 85/150/65 81/141/65
f 88/153/66 84/154/66 82/142/66 86/149/66
o Dark_tile.002_Cube.004
v -1.469970 -0.100455 -0.243959
v -1.469970 0.100455 -0.243959
v -1.469970 -0.100455 -2.243959
v -1.469970 0.100455 -2.243959
v 0.530030 -0.100455 -0.243959
v 0.530030 0.100455 -0.243959
v 0.530030 -0.100455 -2.243959
v 0.530030 0.100455 -2.243959
vt 0.0059 -0.0973
vt 0.0059 0.0024
vt -0.9865 0.0024
vt -0.9865 -0.0973
vt -1.9790 0.0024
vt -1.9790 -0.0973
vt 1.9908 -0.0973
vt 1.9908 0.0024
vt 0.9983 0.0024
vt 0.9983 -0.0973
vt 0.0059 -1.0897
vt 0.9983 -1.0897
vt 0.9983 0.9949
vt 0.0059 0.9949
vn -1.0000 0.0000 0.0000
vn 0.0000 0.0000 -1.0000
vn 1.0000 0.0000 0.0000
vn 0.0000 0.0000 1.0000
vn 0.0000 -1.0000 0.0000
vn 0.0000 1.0000 0.0000
usemtl Material.001
s off
f 89/155/67 90/156/67 92/157/67 91/158/67
f 91/158/68 92/157/68 96/159/68 95/160/68
f 95/161/69 96/162/69 94/163/69 93/164/69
f 93/164/70 94/163/70 90/156/70 89/155/70
f 91/165/71 95/166/71 93/164/71 89/155/71
f 96/167/72 92/168/72 90/156/72 94/163/72
o Dark_tile.001_Cube.003
v -1.469970 -0.100455 1.851462
v -1.469970 0.100455 1.851462
v -1.469970 -0.100455 -0.148538
v -1.469970 0.100455 -0.148538
v 0.530030 -0.100455 1.851462
v 0.530030 0.100455 1.851462
v 0.530030 -0.100455 -0.148538
v 0.530030 0.100455 -0.148538
vt 0.0059 -0.0973
vt 0.0059 0.0024
vt -0.9865 0.0024
vt -0.9865 -0.0973
vt -1.9790 0.0024
vt -1.9790 -0.0973
vt 1.9908 -0.0973
vt 1.9908 0.0024
vt 0.9983 0.0024
vt 0.9983 -0.0973
vt 0.0059 -1.0897
vt 0.9983 -1.0897
vt 0.9983 0.9949
vt 0.0059 0.9949
vn -1.0000 0.0000 0.0000
vn 0.0000 0.0000 -1.0000
vn 1.0000 0.0000 0.0000
vn 0.0000 0.0000 1.0000
vn 0.0000 -1.0000 0.0000
vn 0.0000 1.0000 0.0000
usemtl Material.001
s off
f 97/169/73 98/170/73 100/171/73 99/172/73
f 99/172/74 100/171/74 104/173/74 103/174/74
f 103/175/75 104/176/75 102/177/75 101/178/75
f 101/178/76 102/177/76 98/170/76 97/169/76
f 99/179/77 103/180/77 101/178/77 97/169/77
f 104/181/78 100/182/78 98/170/78 102/177/78
o Dark_tile_Cube.001
v 0.669105 -0.100455 1.851462
v 0.669105 0.100455 1.851462
v 0.669105 -0.100455 -0.148538
v 0.669105 0.100455 -0.148538
v 2.669105 -0.100455 1.851462
v 2.669105 0.100455 1.851462
v 2.669105 -0.100455 -0.148538
v 2.669105 0.100455 -0.148538
vt 0.0059 -0.0973
vt 0.0059 0.0024
vt -0.9865 0.0024
vt -0.9865 -0.0973
vt -1.9790 0.0024
vt -1.9790 -0.0973
vt 1.9908 -0.0973
vt 1.9908 0.0024
vt 0.9983 0.0024
vt 0.9983 -0.0973
vt 0.0059 -1.0897
vt 0.9983 -1.0897
vt 0.9983 0.9949
vt 0.0059 0.9949
vn -1.0000 0.0000 0.0000
vn 0.0000 0.0000 -1.0000
vn 1.0000 0.0000 0.0000
vn 0.0000 0.0000 1.0000
vn 0.0000 -1.0000 0.0000
vn 0.0000 1.0000 0.0000
usemtl Material.001
s off
f 105/183/79 106/184/79 108/185/79 107/186/79
f 107/186/80 108/185/80 112/187/80 111/188/80
f 111/189/81 112/190/81 110/191/81 109/192/81
f 109/192/82 110/191/82 106/184/82 105/183/82
f 107/193/83 111/194/83 109/192/83 105/183/83
f 112/195/84 108/196/84 106/184/84 110/191/84
o Light_tile_Cube.002
v 2.773838 -0.100455 1.856271
v 2.773838 0.100455 1.856271
v 2.773838 -0.100455 -0.143729
v 2.773838 0.100455 -0.143729
v 4.773838 -0.100455 1.856271
v 4.773838 0.100455 1.856271
v 4.773838 -0.100455 -0.143729
v 4.773838 0.100455 -0.143729
vt 0.0039 -0.0987
vt 0.0039 0.0017
vt -0.9960 0.0017
vt -0.9960 -0.0987
vt -1.9959 0.0017
vt -1.9959 -0.0987
vt 2.0037 -0.0987
vt 2.0037 0.0017
vt 1.0038 0.0017
vt 1.0038 -0.0987
vt 0.0039 -1.0986
vt 1.0038 -1.0986
vt 1.0038 1.0016
vt 0.0039 1.0016
vn -1.0000 0.0000 0.0000
vn 0.0000 0.0000 -1.0000
vn 1.0000 0.0000 0.0000
vn 0.0000 0.0000 1.0000
vn 0.0000 -1.0000 0.0000
vn 0.0000 1.0000 0.0000
usemtl Material.002
s off
f 113/197/85 114/198/85 116/199/85 115/200/85
f 115/200/86 116/199/86 120/201/86 119/202/86
f 119/203/87 120/204/87 118/205/87 117/206/87
f 117/206/88 118/205/88 114/198/88 113/197/88
f 115/207/89 119/208/89 117/206/89 113/197/89
f 120/209/90 116/210/90 114/198/90 118/205/90
