# Blender v2.78 (sub 4) OBJ File: 'light_tile.blend'
# www.blender.org
mtllib light_tile.mtl
o Light_tile_Cube.002
v -1.000000 -0.200000 1.000000
v -1.000000 0.000000 1.000000
v -1.000000 -0.200000 -1.000000
v -1.000000 0.000000 -1.000000
v 1.000000 -0.200000 1.000000
v 1.000000 0.000000 1.000000
v 1.000000 -0.200000 -1.000000
v 1.000000 0.000000 -1.000000
vt 0.003896 -0.098741
vt 0.003896 0.001703
vt -0.995988 0.001701
vt -0.995988 -0.098742
vt -1.995866 0.001698
vt -1.995865 -0.098744
vt 2.003682 -0.098741
vt 2.003682 0.001704
vt 1.003786 0.001704
vt 1.003786 -0.098741
vt 0.003896 -1.098630
vt 1.003786 -1.098630
vt 1.003785 1.001593
vt 0.003895 1.001593
vn -1.0000 0.0000 0.0000
vn 0.0000 0.0000 -1.0000
vn 1.0000 0.0000 0.0000
vn 0.0000 0.0000 1.0000
vn 0.0000 -1.0000 0.0000
vn 0.0000 1.0000 0.0000
usemtl Material.002
s off
f 1/1/1 2/2/1 4/3/1 3/4/1
f 3/4/2 4/3/2 8/5/2 7/6/2
f 7/7/3 8/8/3 6/9/3 5/10/3
f 5/10/4 6/9/4 2/2/4 1/1/4
f 3/11/5 7/12/5 5/10/5 1/1/5
f 8/13/6 4/14/6 2/2/6 6/9/6
