# Blender v2.78 (sub 4) OBJ File: 'switch_tile.blend'
# www.blender.org
mtllib switch_tile.mtl
o Cube_Cube.002
v 0.780645 -0.060629 0.956765
v 0.780645 0.060629 0.956765
v -0.956765 -0.060629 -0.780645
v -0.956765 0.060629 -0.780645
v 0.956765 -0.060629 0.780645
v 0.956765 0.060629 0.780645
v -0.780645 -0.060629 -0.956765
v -0.780645 0.060629 -0.956765
v -0.178252 -0.060629 -0.002132
v -0.178252 0.060629 -0.002132
v -0.002132 -0.060629 -0.178252
v -0.002132 0.060629 -0.178252
v 0.003592 -0.060629 0.179712
v 0.179712 0.060629 0.003592
v 0.003592 0.060629 0.179712
v 0.179712 -0.060629 0.003592
v -0.769727 0.060629 0.953031
v -0.951571 0.060629 0.771187
v -0.951571 -0.060629 0.771187
v -0.769727 -0.060629 0.953031
v 0.955526 -0.060629 -0.772222
v 0.773681 -0.060629 -0.954066
v 0.773681 0.060629 -0.954066
v 0.955526 0.060629 -0.772222
vt 1.415530 -1.638697
vt 1.415530 -1.714408
vt 1.873147 -1.714408
vt 1.873147 -1.638697
vt 0.960297 1.345395
vt 0.909897 1.345395
vt 0.909898 1.189878
vt 0.960298 1.189878
vt -0.161767 0.503722
vt -0.111367 0.503723
vt -0.111367 1.189876
vt -0.161767 1.189876
vt -0.111367 1.345394
vt -0.161767 1.345394
vt -0.618526 1.345393
vt -0.618526 1.189875
vt 0.345391 1.189876
vt 0.345391 1.345394
vt 0.452281 1.345394
vt 0.452281 1.189877
vt -1.183033 1.345393
vt -1.183033 1.189875
vt -0.725416 1.189875
vt -0.725416 1.345393
vt -0.161767 -1.714408
vt -0.111367 -1.714408
vt -0.111367 -1.026969
vt -0.161767 -1.026969
vt 0.960967 -1.638697
vt 0.960967 -1.714408
vt -0.111367 2.031548
vt -0.161768 2.031548
vt 0.345392 0.504817
vt 0.452282 0.504818
vt 0.345390 2.103962
vt 0.345391 2.028250
vt 0.452280 2.028250
vt 0.452280 2.103962
vt -0.111367 2.714408
vt -0.161768 2.714408
vt -0.618527 2.028250
vt -0.725416 2.028250
vt -0.161767 -0.341910
vt -0.111366 -0.341910
vt -0.111366 -0.181336
vt -0.161767 -0.181336
vt -0.725415 0.504816
vt -0.618526 0.504816
vn -0.7071 0.0000 0.7071
vn -0.7071 0.0000 -0.7071
vn 0.7071 0.0000 -0.7071
vn 0.7071 0.0000 0.7071
vn 0.0000 -1.0000 0.0000
vn 0.0000 1.0000 0.0000
usemtl Material.002
s off
f 9/1/1 10/2/1 4/3/1 3/4/1
f 3/5/2 4/6/2 8/7/2 7/8/2
f 16/9/3 14/10/3 6/11/3 5/12/3
f 5/12/4 6/11/4 2/13/4 1/14/4
f 13/15/5 16/16/5 5/12/5 1/14/5
f 14/17/6 15/18/6 2/13/6 6/11/6
f 8/7/6 4/6/6 10/19/6 12/20/6
f 3/21/5 7/22/5 11/23/5 9/24/5
f 7/25/3 8/26/3 12/27/3 11/28/3
f 10/2/2 9/1/2 19/29/2 18/30/2
f 1/14/1 2/13/1 15/31/1 13/32/1
f 12/20/6 10/19/6 15/18/6 14/17/6
f 9/24/5 11/23/5 16/16/5 13/15/5
f 12/20/6 14/17/6 24/33/6 23/34/6
f 20/35/1 17/36/1 18/37/1 19/38/1
f 15/18/6 10/19/6 18/37/6 17/36/6
f 13/32/4 15/31/4 17/39/4 20/40/4
f 9/24/5 13/15/5 20/41/5 19/42/5
f 22/43/3 23/44/3 24/45/3 21/46/3
f 11/28/2 12/27/2 23/44/2 22/43/2
f 14/10/4 16/9/4 21/46/4 24/45/4
f 16/16/5 11/23/5 22/47/5 21/48/5
