# Blender v2.78 (sub 0) OBJ File: 'win_well.blend'
# www.blender.org
mtllib win_well.mtl
o Cube_Cube.001
v -1.000000 -2.000000 1.000000
v -1.000000 0.000000 1.000000
v -1.000000 -2.000000 -1.000000
v -1.000000 0.000000 -1.000000
v 1.000000 -2.000000 1.000000
v 1.000000 0.000000 1.000000
v 1.000000 -2.000000 -1.000000
v 1.000000 0.000000 -1.000000
v -1.000000 -2.000000 0.840880
v -1.000000 0.000000 0.840880
v 1.000000 -2.000000 0.840880
v 1.000000 0.000000 0.840880
v -1.000000 0.000000 -0.835845
v 1.000000 -2.000000 -0.835845
v -1.000000 -2.000000 -0.835845
v 1.000000 0.000000 -0.835845
v -0.812865 -2.000000 -1.000000
v -0.812865 0.000000 -1.000000
v -0.812865 -2.000000 1.000000
v -0.812865 0.000000 1.000000
v -0.812865 0.000000 0.840880
v -0.812865 -2.000000 0.840880
v -0.812865 -2.000000 -0.835845
v -0.812865 0.000000 -0.835845
v 0.836257 0.000000 -1.000000
v 0.836257 -2.000000 1.000000
v 0.836257 0.000000 0.840880
v 0.836257 0.000000 -0.835845
v 0.836257 -2.000000 -1.000000
v 0.836257 0.000000 1.000000
v 0.836257 -2.000000 0.840880
v 0.836257 -2.000000 -0.835845
vt 0.0000 0.0000
vt 1.0000 0.0000
vt 1.0000 1.0000
vt 0.0000 1.0000
vt 0.0000 0.0000
vt 1.0000 0.0000
vt 1.0000 1.0000
vt 0.0000 1.0000
vt 0.0000 0.0000
vt 1.0000 0.0000
vt 1.0000 1.0000
vt 0.0000 1.0000
vt 0.0000 0.0000
vt 1.0000 0.0000
vt 1.0000 1.0000
vt 0.0000 1.0000
vt 0.0000 0.0000
vt 1.0000 0.0000
vt 1.0000 1.0000
vt 0.0000 1.0000
vt 0.0000 0.0000
vt 1.0000 0.0000
vt 0.0000 1.0000
vt 0.0000 0.0000
vt 1.0000 1.0000
vt 0.0000 1.0000
vt 0.0000 0.0000
vt 1.0000 0.0000
vt 1.0000 1.0000
vt 0.0000 1.0000
vt 0.0000 0.0000
vt 1.0000 0.0000
vt 1.0000 1.0000
vt 0.0000 1.0000
vt 0.0000 0.0000
vt 1.0000 0.0000
vt 0.0000 1.0000
vt 0.0000 0.0000
vt 1.0000 0.0000
vt 1.0000 1.0000
vt 0.0000 1.0000
vt 1.0000 0.0000
vt 1.0000 1.0000
vt 0.0000 1.0000
vt 0.0000 0.0000
vt 1.0000 0.0000
vt 1.0000 1.0000
vt 0.0000 1.0000
vt 0.0000 0.0000
vt 0.0000 1.0000
vt 0.0000 0.0000
vt 1.0000 0.0000
vt 1.0000 1.0000
vt 0.0000 1.0000
vt 0.0000 0.0000
vt 1.0000 0.0000
vt 1.0000 1.0000
vt 1.0000 0.0000
vt 1.0000 1.0000
vt 0.0000 0.0000
vt 1.0000 0.0000
vt 0.0000 0.0000
vt 1.0000 0.0000
vt 1.0000 1.0000
vt 0.0000 1.0000
vt 1.0000 0.0000
vt 1.0000 1.0000
vt 0.0000 0.0000
vt 1.0000 0.0000
vt 0.0000 1.0000
vt 1.0000 1.0000
vt 0.0000 1.0000
vt 0.0000 0.0000
vt 1.0000 0.0000
vt 1.0000 1.0000
vt 0.0000 0.0000
vt 1.0000 0.0000
vt 0.0000 1.0000
vt 0.0000 0.0000
vt 1.0000 0.0000
vt 1.0000 1.0000
vt 0.0000 1.0000
vt 0.0000 0.0000
vt 1.0000 1.0000
vt 0.0000 1.0000
vt 0.0000 0.0000
vt 1.0000 0.0000
vt 1.0000 1.0000
vt 0.0000 1.0000
vt 0.0000 0.0000
vt 1.0000 0.0000
vt 1.0000 1.0000
vt 1.0000 1.0000
vt 0.0000 1.0000
vt 1.0000 1.0000
vt 0.0000 1.0000
vn -1.0000 0.0000 0.0000
vn 0.0000 0.0000 -1.0000
vn 1.0000 0.0000 0.0000
vn 0.0000 0.0000 1.0000
vn 0.0000 -1.0000 0.0000
vn 0.0000 1.0000 0.0000
usemtl Material.001
s off
f 15/1/1 13/2/1 4/3/1 3/4/1
f 29/5/2 25/6/2 8/7/2 7/8/2
f 11/9/3 12/10/3 6/11/3 5/12/3
f 19/13/4 20/14/4 2/15/4 1/16/4
f 31/17/5 11/18/5 5/19/5 26/20/5
f 21/21/6 10/22/6 2/15/6 20/23/6
f 24/24/6 13/2/6 10/25/6 21/26/6
f 32/27/5 14/28/5 11/29/5 31/30/5
f 14/31/3 16/32/3 12/33/3 11/34/3
f 1/35/1 2/36/1 10/25/1 9/37/1
f 7/38/3 8/39/3 16/40/3 14/41/3
f 29/5/5 7/42/5 14/43/5 32/44/5
f 18/45/6 4/46/6 13/47/6 24/48/6
f 9/49/1 10/22/1 13/47/1 15/50/1
f 25/51/6 18/52/6 24/53/6 28/54/6
f 3/55/5 17/56/5 23/57/5 15/50/5
f 15/1/5 23/58/5 22/59/5 9/37/5
f 28/60/4 24/61/4 23/57/4 32/44/4
f 27/62/6 21/63/6 20/64/6 30/65/6
f 9/49/5 22/66/5 19/67/5 1/16/5
f 26/68/4 30/69/4 20/64/4 19/70/4
f 3/55/2 4/46/2 18/71/2 17/72/2
f 5/73/4 6/74/4 30/75/4 26/20/4
f 12/76/6 27/77/6 30/75/6 6/78/6
f 16/79/6 28/80/6 27/81/6 12/82/6
f 8/83/6 25/6/6 28/84/6 16/85/6
f 17/86/5 29/87/5 32/88/5 23/89/5
f 22/90/5 31/91/5 26/92/5 19/70/5
f 17/86/2 18/52/2 25/93/2 29/94/2
f 27/62/1 28/80/1 32/88/1 31/30/1
f 24/24/3 21/63/3 22/59/3 23/89/3
f 21/21/2 27/77/2 31/95/2 22/96/2
